<svg width="600" height="292" xmlns="http://www.w3.org/2000/svg">
<rect width="600" height="292" fill="#101317" rx="8"/>
<g font-family="JetBrains Mono, monospace" font-size="14">
<text x="16" y="32" fill="#C792EA">import</text><text x="66.4" y="32" fill="#E6E9EF"> </text><text x="74.80000000000001" y="32" fill="#B0B8C2">{</text><text x="83.20000000000002" y="32" fill="#E6E9EF"> </text><text x="91.60000000000002" y="32" fill="#C3E88D">channel</text><text x="150.40000000000003" y="32" fill="#E6E9EF"> </text><text x="158.80000000000004" y="32" fill="#B0B8C2">}</text><text x="167.20000000000005" y="32" fill="#E6E9EF"> </text><text x="175.60000000000005" y="32" fill="#C792EA">from</text><text x="209.20000000000005" y="32" fill="#E6E9EF"> </text><text x="217.60000000000005" y="32" fill="#B0B8C2">'</text><text x="226.00000000000006" y="32" fill="#ECC48D">std/async</text><text x="301.6000000000001" y="32" fill="#B0B8C2">'</text><text x="16" y="72" fill="#C792EA">const</text><text x="58" y="72" fill="#E6E9EF"> </text><text x="66.4" y="72" fill="#C3E88D">ch</text><text x="83.2" y="72" fill="#E6E9EF"> </text><text x="91.60000000000001" y="72" fill="#C792EA">=</text><text x="100.00000000000001" y="72" fill="#E6E9EF"> </text><text x="108.40000000000002" y="72" fill="#82AAFF">channel</text><text x="167.20000000000002" y="72" fill="#B0B8C2">()</text><text x="16" y="112" fill="#C3E88D">async</text><text x="58" y="112" fill="#E6E9EF"> </text><text x="66.4" y="112" fill="#C3E88D">fn</text><text x="83.2" y="112" fill="#E6E9EF"> </text><text x="91.60000000000001" y="112" fill="#82AAFF">worker</text><text x="142" y="112" fill="#B0B8C2">()</text><text x="158.8" y="112" fill="#E6E9EF"> </text><text x="167.20000000000002" y="112" fill="#B0B8C2">{</text><text x="16" y="132" fill="#E6E9EF">  </text><text x="32.8" y="132" fill="#C792EA">for</text><text x="58" y="132" fill="#E6E9EF"> </text><text x="66.4" y="132" fill="#B0B8C2">(</text><text x="74.80000000000001" y="132" fill="#C792EA">const</text><text x="116.80000000000001" y="132" fill="#E6E9EF"> </text><text x="125.20000000000002" y="132" fill="#C3E88D">msg</text><text x="150.40000000000003" y="132" fill="#E6E9EF"> </text><text x="158.80000000000004" y="132" fill="#C792EA">of</text><text x="175.60000000000005" y="132" fill="#E6E9EF"> </text><text x="184.00000000000006" y="132" fill="#C3E88D">ch</text><text x="200.80000000000007" y="132" fill="#B0B8C2">)</text><text x="209.20000000000007" y="132" fill="#E6E9EF"> </text><text x="217.60000000000008" y="132" fill="#B0B8C2">{</text><text x="16" y="152" fill="#E6E9EF">    </text><text x="49.6" y="152" fill="#82AAFF">print</text><text x="91.6" y="152" fill="#B0B8C2">(</text><text x="100" y="152" fill="#B0B8C2">'</text><text x="108.4" y="152" fill="#ECC48D">Received:</text><text x="184" y="152" fill="#B0B8C2">'</text><text x="192.4" y="152" fill="#B0B8C2">,</text><text x="200.8" y="152" fill="#E6E9EF"> </text><text x="209.20000000000002" y="152" fill="#C3E88D">msg</text><text x="234.40000000000003" y="152" fill="#B0B8C2">)</text><text x="16" y="172" fill="#E6E9EF">  </text><text x="32.8" y="172" fill="#B0B8C2">}</text><text x="16" y="192" fill="#B0B8C2">}</text><text x="16" y="232" fill="#82AAFF">worker</text><text x="66.4" y="232" fill="#B0B8C2">()</text><text x="16" y="252" fill="#C3E88D">ch</text><text x="32.8" y="252" fill="#B0B8C2">.</text><text x="41.199999999999996" y="252" fill="#82AAFF">send</text><text x="74.8" y="252" fill="#B0B8C2">(</text><text x="83.2" y="252" fill="#B0B8C2">'</text><text x="91.60000000000001" y="252" fill="#ECC48D">Hello</text><text x="133.60000000000002" y="252" fill="#B0B8C2">'</text><text x="142.00000000000003" y="252" fill="#B0B8C2">)</text><text x="16" y="272" fill="#C3E88D">ch</text><text x="32.8" y="272" fill="#B0B8C2">.</text><text x="41.199999999999996" y="272" fill="#82AAFF">send</text><text x="74.8" y="272" fill="#B0B8C2">(</text><text x="83.2" y="272" fill="#B0B8C2">'</text><text x="91.60000000000001" y="272" fill="#ECC48D">World</text><text x="133.60000000000002" y="272" fill="#B0B8C2">'</text><text x="142.00000000000003" y="272" fill="#B0B8C2">)</text></g>
</svg>