<svg width="600" height="292" xmlns="http://www.w3.org/2000/svg">
<rect width="600" height="292" fill="#ffffff" rx="8"/>
<g font-family="JetBrains Mono, monospace" font-size="14">
<text x="16" y="32" fill="#9C27B0">class</text><text x="58" y="32" fill="#1A1D23"> </text><text x="66.4" y="32" fill="#1976D2">Counter</text><text x="125.20000000000002" y="32" fill="#1A1D23"> </text><text x="133.60000000000002" y="32" fill="#546E7A">{</text><text x="16" y="52" fill="#1A1D23">  </text><text x="32.8" y="52" fill="#9C27B0">constructor</text><text x="125.2" y="52" fill="#546E7A">()</text><text x="142" y="52" fill="#1A1D23"> </text><text x="150.4" y="52" fill="#546E7A">{</text><text x="16" y="72" fill="#1A1D23">    </text><text x="49.6" y="72" fill="#558B2F">this</text><text x="83.2" y="72" fill="#546E7A">.</text><text x="91.60000000000001" y="72" fill="#558B2F">value</text><text x="133.60000000000002" y="72" fill="#1A1D23"> </text><text x="142.00000000000003" y="72" fill="#9C27B0">=</text><text x="150.40000000000003" y="72" fill="#1A1D23"> </text><text x="158.80000000000004" y="72" fill="#D84315">0</text><text x="16" y="92" fill="#1A1D23">  </text><text x="32.8" y="92" fill="#546E7A">}</text><text x="16" y="132" fill="#1A1D23">  </text><text x="32.8" y="132" fill="#1976D2">increment</text><text x="108.4" y="132" fill="#546E7A">()</text><text x="125.2" y="132" fill="#1A1D23"> </text><text x="133.6" y="132" fill="#546E7A">{</text><text x="16" y="152" fill="#1A1D23">    </text><text x="49.6" y="152" fill="#558B2F">this</text><text x="83.2" y="152" fill="#546E7A">.</text><text x="91.60000000000001" y="152" fill="#558B2F">value</text><text x="133.60000000000002" y="152" fill="#9C27B0">++</text><text x="16" y="172" fill="#1A1D23">  </text><text x="32.8" y="172" fill="#546E7A">}</text><text x="16" y="192" fill="#546E7A">}</text><text x="16" y="232" fill="#9C27B0">const</text><text x="58" y="232" fill="#1A1D23"> </text><text x="66.4" y="232" fill="#558B2F">c</text><text x="74.80000000000001" y="232" fill="#1A1D23"> </text><text x="83.20000000000002" y="232" fill="#9C27B0">=</text><text x="91.60000000000002" y="232" fill="#1A1D23"> </text><text x="100.00000000000003" y="232" fill="#9C27B0">new</text><text x="125.20000000000003" y="232" fill="#1A1D23"> </text><text x="133.60000000000002" y="232" fill="#1976D2">Counter</text><text x="192.40000000000003" y="232" fill="#546E7A">()</text><text x="16" y="252" fill="#558B2F">c</text><text x="24.4" y="252" fill="#546E7A">.</text><text x="32.8" y="252" fill="#1976D2">increment</text><text x="108.4" y="252" fill="#546E7A">()</text><text x="16" y="272" fill="#1976D2">print</text><text x="58" y="272" fill="#546E7A">(</text><text x="66.4" y="272" fill="#558B2F">c</text><text x="74.80000000000001" y="272" fill="#546E7A">.</text><text x="83.20000000000002" y="272" fill="#558B2F">value</text><text x="125.20000000000002" y="272" fill="#546E7A">)</text></g>
</svg>