<svg width="600" height="292" xmlns="http://www.w3.org/2000/svg">
<rect width="600" height="292" fill="#101317" rx="8"/>
<g font-family="JetBrains Mono, monospace" font-size="14">
<text x="16" y="32" fill="#C792EA">class</text><text x="58" y="32" fill="#E6E9EF"> </text><text x="66.4" y="32" fill="#82AAFF">Counter</text><text x="125.20000000000002" y="32" fill="#E6E9EF"> </text><text x="133.60000000000002" y="32" fill="#B0B8C2">{</text><text x="16" y="52" fill="#E6E9EF">  </text><text x="32.8" y="52" fill="#C792EA">constructor</text><text x="125.2" y="52" fill="#B0B8C2">()</text><text x="142" y="52" fill="#E6E9EF"> </text><text x="150.4" y="52" fill="#B0B8C2">{</text><text x="16" y="72" fill="#E6E9EF">    </text><text x="49.6" y="72" fill="#C3E88D">this</text><text x="83.2" y="72" fill="#B0B8C2">.</text><text x="91.60000000000001" y="72" fill="#C3E88D">value</text><text x="133.60000000000002" y="72" fill="#E6E9EF"> </text><text x="142.00000000000003" y="72" fill="#C792EA">=</text><text x="150.40000000000003" y="72" fill="#E6E9EF"> </text><text x="158.80000000000004" y="72" fill="#F78C6C">0</text><text x="16" y="92" fill="#E6E9EF">  </text><text x="32.8" y="92" fill="#B0B8C2">}</text><text x="16" y="132" fill="#E6E9EF">  </text><text x="32.8" y="132" fill="#82AAFF">increment</text><text x="108.4" y="132" fill="#B0B8C2">()</text><text x="125.2" y="132" fill="#E6E9EF"> </text><text x="133.6" y="132" fill="#B0B8C2">{</text><text x="16" y="152" fill="#E6E9EF">    </text><text x="49.6" y="152" fill="#C3E88D">this</text><text x="83.2" y="152" fill="#B0B8C2">.</text><text x="91.60000000000001" y="152" fill="#C3E88D">value</text><text x="133.60000000000002" y="152" fill="#C792EA">++</text><text x="16" y="172" fill="#E6E9EF">  </text><text x="32.8" y="172" fill="#B0B8C2">}</text><text x="16" y="192" fill="#B0B8C2">}</text><text x="16" y="232" fill="#C792EA">const</text><text x="58" y="232" fill="#E6E9EF"> </text><text x="66.4" y="232" fill="#C3E88D">c</text><text x="74.80000000000001" y="232" fill="#E6E9EF"> </text><text x="83.20000000000002" y="232" fill="#C792EA">=</text><text x="91.60000000000002" y="232" fill="#E6E9EF"> </text><text x="100.00000000000003" y="232" fill="#C792EA">new</text><text x="125.20000000000003" y="232" fill="#E6E9EF"> </text><text x="133.60000000000002" y="232" fill="#82AAFF">Counter</text><text x="192.40000000000003" y="232" fill="#B0B8C2">()</text><text x="16" y="252" fill="#C3E88D">c</text><text x="24.4" y="252" fill="#B0B8C2">.</text><text x="32.8" y="252" fill="#82AAFF">increment</text><text x="108.4" y="252" fill="#B0B8C2">()</text><text x="16" y="272" fill="#82AAFF">print</text><text x="58" y="272" fill="#B0B8C2">(</text><text x="66.4" y="272" fill="#C3E88D">c</text><text x="74.80000000000001" y="272" fill="#B0B8C2">.</text><text x="83.20000000000002" y="272" fill="#C3E88D">value</text><text x="125.20000000000002" y="272" fill="#B0B8C2">)</text></g>
</svg>