<svg width="600" height="212" xmlns="http://www.w3.org/2000/svg">
<rect width="600" height="212" fill="#ffffff" rx="8"/>
<g font-family="JetBrains Mono, monospace" font-size="14">
<text x="16" y="32" fill="#9C27B0">import</text><text x="66.4" y="32" fill="#1A1D23"> </text><text x="74.80000000000001" y="32" fill="#546E7A">{</text><text x="83.20000000000002" y="32" fill="#1A1D23"> </text><text x="91.60000000000002" y="32" fill="#558B2F">signal</text><text x="142.00000000000003" y="32" fill="#546E7A">,</text><text x="150.40000000000003" y="32" fill="#1A1D23"> </text><text x="158.80000000000004" y="32" fill="#558B2F">effect</text><text x="209.20000000000005" y="32" fill="#1A1D23"> </text><text x="217.60000000000005" y="32" fill="#546E7A">}</text><text x="226.00000000000006" y="32" fill="#1A1D23"> </text><text x="234.40000000000006" y="32" fill="#9C27B0">from</text><text x="268.00000000000006" y="32" fill="#1A1D23"> </text><text x="276.40000000000003" y="32" fill="#546E7A">'</text><text x="284.8" y="32" fill="#F57C00">std/reactive</text><text x="385.6" y="32" fill="#546E7A">'</text><text x="16" y="72" fill="#9C27B0">const</text><text x="58" y="72" fill="#1A1D23"> </text><text x="66.4" y="72" fill="#546E7A">[</text><text x="74.80000000000001" y="72" fill="#558B2F">count</text><text x="116.80000000000001" y="72" fill="#546E7A">,</text><text x="125.20000000000002" y="72" fill="#1A1D23"> </text><text x="133.60000000000002" y="72" fill="#558B2F">setCount</text><text x="200.8" y="72" fill="#546E7A">]</text><text x="209.20000000000002" y="72" fill="#1A1D23"> </text><text x="217.60000000000002" y="72" fill="#9C27B0">=</text><text x="226.00000000000003" y="72" fill="#1A1D23"> </text><text x="234.40000000000003" y="72" fill="#1976D2">signal</text><text x="284.80000000000007" y="72" fill="#546E7A">(</text><text x="293.20000000000005" y="72" fill="#D84315">0</text><text x="301.6" y="72" fill="#546E7A">)</text><text x="16" y="112" fill="#1976D2">effect</text><text x="66.4" y="112" fill="#546E7A">(()</text><text x="91.60000000000001" y="112" fill="#1A1D23"> </text><text x="100.00000000000001" y="112" fill="#9C27B0">=&gt;</text><text x="142" y="112" fill="#1A1D23"> </text><text x="150.4" y="112" fill="#546E7A">{</text><text x="16" y="132" fill="#1A1D23">  </text><text x="32.8" y="132" fill="#1976D2">print</text><text x="74.8" y="132" fill="#546E7A">(</text><text x="83.2" y="132" fill="#546E7A">'</text><text x="91.60000000000001" y="132" fill="#F57C00">Count:</text><text x="142" y="132" fill="#546E7A">'</text><text x="150.4" y="132" fill="#546E7A">,</text><text x="158.8" y="132" fill="#1A1D23"> </text><text x="167.20000000000002" y="132" fill="#1976D2">count</text><text x="209.20000000000002" y="132" fill="#546E7A">())</text><text x="16" y="152" fill="#546E7A">})</text><text x="16" y="192" fill="#1976D2">setCount</text><text x="83.2" y="192" fill="#546E7A">(</text><text x="91.60000000000001" y="192" fill="#D84315">5</text><text x="100.00000000000001" y="192" fill="#546E7A">)</text></g>
</svg>